<svg viewBox="0 0 16 16" fill="#000000" xmlns="http://www.w3.org/2000/svg" id="Hand--Streamline-Remix" height="16" width="16">
  <desc>
    Hand Streamline Icon: https://streamlinehq.com
  </desc>
  <path d="M8.333466666666666 1.3333333333333333c-0.18406666666666666 0 -0.3333333333333333 0.14923999999999998 -0.3333333333333333 0.3333333333333333V8h-1.3333333333333333V3c0 -0.18409333333333333 -0.14923999999999998 -0.3333333333333333 -0.3333333333333333 -0.3333333333333333 -0.18409999999999999 0 -0.3333333333333333 0.14923999999999998 -0.3333333333333333 0.3333333333333333V9.333333333333332l-1.3333066666666666 0c-0.2540866666666667 -1.0805333333333333 -0.9052533333333332 -1.7062 -1.6032266666666666 -1.7855999999999999 0.18924 0.4965333333333333 0.5105133333333333 1.2917333333333332 1.0472933333333332 2.5185999999999997 0.5725133333333333 1.3084666666666664 1.1499599999999999 2.281533333333333 1.8916 2.932733333333333C6.718866666666667 13.628 7.6390666666666664 14 9.000133333333332 14c2.0250666666666666 0 3.6666666666666665 -1.6415333333333333 3.6666666666666665 -3.6665333333333328V4.666666666666666c0 -0.18409333333333333 -0.14926666666666666 -0.3333333333333333 -0.3333333333333333 -0.3333333333333333s-0.3333333333333333 0.14923999999999998 -0.3333333333333333 0.3333333333333333v3.333333333333333h-1.3333333333333333V2.6666666666666665c0 -0.18409333333333333 -0.14926666666666666 -0.3333333333333333 -0.3333333333333333 -0.3333333333333333s-0.3333333333333333 0.14923999999999998 -0.3333333333333333 0.3333333333333333v5.333333333333333h-1.3333333333333333V1.6666666666666665c0 -0.18409333333333333 -0.14926666666666666 -0.3333333333333333 -0.3333333333333333 -0.3333333333333333Zm5.666666666666666 9.000133333333332c0 2.7614666666666663 -2.2386 4.999866666666666 -5 4.999866666666666 -1.6389999999999998 0 -2.885373333333333 -0.46133333333333326 -3.87736 -1.3323333333333331 -0.9667 -0.8488 -1.6392533333333335 -2.0422666666666665 -2.2334066666666663 -3.4002 -0.62008 -1.4172666666666667 -0.9626733333333333 -2.280533333333333 -1.1494266666666666 -2.785133333333333 -0.23781999999999998 -0.6425333333333333 0.09083333333333334 -1.54092 0.9839466666666665 -1.60336 0.7699533333333333 -0.05383333333333333 1.4231866666666666 0.19602 1.9429133333333333 0.6268266666666666V3c0 -0.9204733333333334 0.7461933333333333 -1.6666666666666665 1.6666666666666665 -1.6666666666666665 0.12334666666666666 0 0.24356 0.013399999999999999 0.3592666666666667 0.03881999999999999C6.831799999999999 0.5921513333333333 7.513466666666667 0 8.333466666666666 0c0.7066666666666667 0 1.3106 0.43979599999999996 1.5530666666666666 1.0606066666666667 0.1422 -0.03949333333333333 0.2921333333333333 -0.06060666666666667 0.4469333333333333 -0.06060666666666667 0.9204666666666667 0 1.6666666666666665 0.7461933333333333 1.6666666666666665 1.6666666666666665v0.3666733333333333c0.10773333333333332 -0.021859999999999997 0.21919999999999998 -0.033339999999999995 0.3333333333333333 -0.033339999999999995 0.9204666666666667 0 1.6666666666666665 0.7461933333333333 1.6666666666666665 1.6666666666666665v5.666799999999999Z" stroke-width="0.6667"></path>
</svg>